<svg width="200" height="200" xmlns="http://www.w3.org/2000/svg">
 <!-- Created with Method Draw - http://github.com/duopixel/Method-Draw/ -->

 <g id="Layer_1">
  <title>Layer 1</title>
  <ellipse ry="12.5" rx="12.72727" id="svg_12" cy="54.92106" cx="79.05504" opacity="undefined" fill-opacity="null" stroke-opacity="null" stroke-dasharray="null" stroke-width="null" stroke="#000" fill="#fff"/>
  <ellipse stroke="#000000" ry="33.63636" rx="14.77272" id="svg_20" cy="105.10048" cx="75.64594" opacity="undefined" stroke-dasharray="null" stroke-width="null" fill="#ffffff"/>
  <path id="svg_31" d="m345.40905,63.9091l11.8636,23.36361l-58.18181,38.18181" opacity="NaN" stroke-dasharray="null" stroke-width="null" stroke="#000" fill="#fff"/>
  <path id="svg_33" d="m283.13633,131.63636l-9.04548,4.72725l9.04548,-4.72725z" opacity="undefined" stroke-dasharray="null" stroke-width="null" stroke="#fff" fill="#000"/>
  <ellipse class = "hand__one" stroke="#000000" transform="rotate(33.70589065551758 92.81107330322261,89.77230834960939) " ry="3.93251" rx="21.65157" id="svg_81" cy="89.77231" cx="92.81107" opacity="undefined" stroke-dasharray="null" stroke-width="null" fill="#ffffff"/>
  <ellipse stroke="#999999" transform="rotate(-32.44518280029297 54.784446716308615,87.81114959716797) " ry="3.28947" rx="23.18132" id="svg_82" cy="87.81115" cx="54.78445" opacity="undefined" stroke-dasharray="null" stroke-width="null" fill="#999999"/>
  <ellipse stroke="#ffffff" transform="rotate(16.31558609008789 71.73672485351554,83.21133422851565) " ry="9.36109" rx="5.9959" id="svg_83" cy="83.21133" cx="71.73672" opacity="undefined" stroke-dasharray="null" stroke-width="null" fill="#ffffff"/>
  <ellipse transform="rotate(16.575698852539062 66.42105865478524,153.18421936035156) " stroke="#000000" ry="21.18421" rx="4.07895" id="svg_84" cy="153.18421" cx="66.42106" opacity="undefined" stroke-opacity="null" stroke-dasharray="null" stroke-width="null" fill="#ffffff"/>
  <ellipse transform="rotate(-12.210683822631836 83.26316070556614,153.84210205078128) " ry="20" rx="4.07895" id="svg_85" cy="153.84211" cx="83.26316" opacity="undefined" stroke-opacity="null" stroke-dasharray="null" stroke-width="null" stroke="#000000" fill="#ffffff"/>
  <ellipse ry="11.71053" rx="8.02632" id="svg_86" cy="126.60526" cx="75.63158" opacity="undefined" stroke-dasharray="null" stroke-width="null" stroke="#ffffff" fill="#ffffff"/>
  <line stroke-linecap="null" stroke-linejoin="null" id="svg_88" y2="72.15789" x2="73.65789" y1="66.63158" x1="75.5" opacity="undefined" fill-opacity="null" stroke-opacity="null" stroke-dasharray="null" stroke-width="null" stroke="#000000" fill="none"/>
  <line stroke-linecap="null" stroke-linejoin="null" id="svg_89" y2="71.63158" x2="79.18421" y1="67.42105" x1="79.18421" opacity="undefined" fill-opacity="null" stroke-opacity="null" stroke-dasharray="null" stroke-width="null" stroke="#000000" fill="none"/>
  <path d="m88.6579,48.21053c0,0 -0.26316,0 -0.52632,0c-0.26315,0 -0.52631,0 -0.78947,0c-0.26315,0 -0.52631,0 -0.52631,0.26316l-0.26315,0l0,0.26316l-0.26316,0.26316" id="svg_91" opacity="undefined" fill-opacity="null" stroke-opacity="null" stroke-dasharray="null" stroke-width="null" stroke="#000000" fill="none"/>
  <ellipse stroke="#000000" ry="0.78947" rx="1.05263" id="svg_93" cy="51.36842" cx="87.86842" opacity="undefined" fill-opacity="null" stroke-opacity="null" stroke-dasharray="null" stroke-width="null" fill="none"/>
  <path d="m90.76316,56.63158c0,0 -0.26316,0 -0.52632,0c-0.26315,0 -0.52631,0 -0.52631,0c-0.26316,0 -0.74327,0.2374 -1.05263,-0.26316c-0.13835,-0.22385 0,-0.26316 -0.26316,-0.52631l0,0" id="svg_95" opacity="undefined" fill-opacity="null" stroke-opacity="null" stroke-dasharray="null" stroke-width="null" stroke="#000000" fill="none"/>
 </g>
</svg>